# AST/ASF file generated using VICON BodyLanguage
# -----------------------------------------------
:version 1.10
:name VICON
:units
  mass 1.0
  length 0.45
  angle deg
:documentation
   .ast/.asf automatically generated from VICON data using
   VICON BodyBuilder and BodyLanguage model FoxedUp or BRILLIANT.MOD
:root
   order TX TY TZ RX RY RZ
   axis XYZ
   position 0 0 0  
   orientation 0 0 0 
:bonedata
  begin
     id 1 
     name lhipjoint
     direction 0.567725 -0.736092 0.368589 
     length 2.42353 
     axis 0 0 0  XYZ
  end
  begin
     id 2 
     name lfemur
     direction 0.34202 -0.939693 0  
     length 7.24894  
     axis 0 0 20  XYZ
    dof rx ry rz
    limits (-160.0 20.0)
           (-70.0 70.0)
           (-60.0 70.0)
  end
  begin
     id 3 
     name ltibia
     direction 0.34202 -0.939693 0   
     length 7.6997   
     axis 0 0 20   XYZ
    dof rx
    limits (-10.0 170.0)
  end
  begin
     id 4 
     name lfoot
     direction 0.100767 -0.276854 0.955614   
     length 2.37556   
     axis -90 7.62852e-016 20   XYZ
    dof rx rz
    limits (-45.0 90.0)
           (-70.0 20.0)
  end
  begin
     id 5 
     name ltoes
     direction 1.53592e-011 -4.21894e-011 1   
     length 1.18363   
     axis -90 7.62852e-016 20   XYZ
    dof rx
    limits (-90.0 20.0)
  end
  begin
     id 6 
     name rhipjoint
     direction -0.556459 -0.742938 0.372017   
     length 2.4012  
     axis 0 0 0  XYZ 
  end
  begin
     id 7 
     name rfemur
     direction -0.34202 -0.939693 0   
     length 7.5119   
     axis 0 0 -20   XYZ
    dof rx ry rz
    limits (-160.0 20.0)
           (-70.0 70.0)
           (-70.0 60.0)
  end
  begin
     id 8 
     name rtibia
     direction -0.34202 -0.939693 0   
     length 7.50155   
     axis 0 0 -20   XYZ
    dof rx
    limits (-10.0 170.0)
 end
 begin
     id 9 
     name rfoot
     direction -0.118427 -0.325376 0.938139   
     length 2.32487  
     axis -90 -7.62852e-016 -20   XYZ
    dof rx rz
    limits (-45.0 90.0)
           (-20.0 70.0)
  end
  begin
     id 10 
     name rtoes
     direction -1.53525e-011 -4.21868e-011 1   
     length 1.15233   
     axis -90 -7.62852e-016 -20   XYZ
    dof rx
    limits (-90.0 20.0)
  end
  begin
     id 11 
     name lowerback
     direction 0.0287568 0.999577 -0.00434502   
     length 2.15243   
     axis 0 0 0   XYZ
    dof rx ry rz
    limits (-20.0 45.0)
           (-30.0 30.0)
           (-30.0 30.0)
  end
  begin
     id 12 
     name upperback
     direction 0.0294009 0.99956 0.00404628   
     length 2.15427   
     axis 0 0 0   XYZ
    dof rx ry rz
    limits (-20.0 45.0)
           (-30.0 30.0)
           (-30.0 30.0)
  end
  begin
     id 13 
     name thorax
     direction 0.0151014 0.999868 0.0059419   
     length 2.14898   
     axis 0 0 0   XYZ
    dof rx ry rz
    limits (-20.0 45.0)
           (-30.0 30.0)
           (-30.0 30.0)
  end
  begin
     id 14 
     name lowerneck
     direction -0.0249197 0.989906 0.139515   
     length 1.6861   
     axis 0 0 0   XYZ
    dof rx ry rz
    limits (-20.0 45.0)
           (-30.0 30.0)
           (-30.0 30.0)
  end
  begin
     id 15 
     name upperneck
     direction 0.0438463 0.988795 -0.142693   
     length 1.71276   
     axis 0 0 0   XYZ
    dof rx ry rz
    limits (-20.0 45.0)
           (-30.0 30.0)
           (-30.0 30.0)
  end
  begin
     id 16
     name head
     direction 0.0148499 0.997845 -0.0639186  
     length 1.7209  
     axis 0 0 0   XYZ
    dof rx ry rz
    limits (-20.0 45.0)
           (-30.0 30.0)
           (-30.0 30.0)
  end
  begin
     id 17 
     name lclavicle
     direction 0.940298 0.323464 -0.105876  
     length 3.9048  
     axis 0 0 0   XYZ
    dof ry rz
    limits (-20.0 10.0)
           (0.0 20.0)
  end
  begin
     id 18 
     name lhumerus
     direction 1 -4.48954e-011 -4.9675e-028   
     length 4.6851   
     axis 180 -30 -90   XYZ
    dof rx ry rz
    limits (-60.0 90.0)
           (-90.0 90.0)
           (-90.0 90.0)
  end
  begin
     id 19
     name lradius
     direction 1 -4.48992e-011 -1.03359e-026   
     length 3.39626   
     axis 180 -30 -90   XYZ
    dof rx
    limits (-10.0 170.0)
  end
  begin
     id 20
     name lwrist
     direction 1 -4.48906e-011 -1.67336e-026   
     length 1.69813   
     axis 9.90442e-015 90 90   XYZ
    dof ry
    limits (-180.0 0.0)
 end
  begin
     id 21 
     name lhand
     direction 1 -4.49006e-011 -3.34673e-026   
     length 0.486078   
     axis 2.1355e-014 90 90   XYZ
    dof rx rz
    limits (-90.0 90.0)
           (-45.0 45.0)
  end
  begin
     id 22 
     name lfingers
     direction 1 -4.48992e-011 -6.69345e-026   
     length 0.391889   
     axis 4.27099e-014 90 90   XYZ
    dof rx
    limits (0.0 90.0)
  end
  begin
     id 23
     name lthumb
     direction 0.707107 -6.34926e-011 0.707107   
     length 0.562676   
     axis -90 45 2.85299e-015   XYZ
    dof rx rz
    limits (-45.0 45.0)
           (-45.0 45.0)
  end
  begin
     id 24 
     name rclavicle
     direction -0.882459 0.414895 -0.221648   
     length 3.44646  
     axis 0 0 0   XYZ 
    dof ry rz
    limits (-10.0 20.0)
           (-20.0 0.0)
  end
  begin
     id 25 
     name rhumerus
     direction -1 -4.48962e-011 -2.37984e-027  
     length 5.55576   
     axis 180 30 90   XYZ
    dof rx ry rz
    limits (-90.0 60.0)
           (-90.0 90.0)
           (-90.0 90.0)
  end
  begin
     id 26 
     name rradius
     direction -1 -4.48982e-011 -6.86791e-027   
     length 3.32774   
     axis 180 30 90   XYZ
    dof rx
    limits (-10.0 170.0)
  end
  begin
     id 27 
     name rwrist
     direction -1 -4.48961e-011 -1.67336e-026   
     length 1.66387   
     axis 9.90442e-015 -90 -90   XYZ
    dof ry
    limits (-180.0 0.0)
  end
  begin
     id 28
     name rhand
     direction -1 -4.4897e-011 -3.34673e-026   
     length 0.507628   
     axis 2.1355e-014 -90 -90   XYZ
    dof rx rz
    limits (-90.0 90.0)
           (-45.0 45.0)
  end
  begin
     id 29
     name rfingers
     direction -1 -4.48854e-011 -6.69345e-026   
     length 0.409263   
     axis 4.27099e-014 -90 -90   XYZ
    dof rx
    limits (0.0 90.0)
  end
  begin
     id 30
     name rthumb
     direction -0.707107 -6.34913e-011 0.707107   
     length 0.587622   
     axis -90 -45 -2.85299e-015   XYZ
    dof rx rz
    limits (-45.0 45.0)
           (-45.0 45.0)
  end
:hierarchy
  begin
    root lhipjoint rhipjoint lowerback
    lhipjoint lfemur
    lfemur ltibia
    ltibia lfoot
    lfoot ltoes
    rhipjoint rfemur
    rfemur rtibia
    rtibia rfoot
    rfoot rtoes
    lowerback upperback
    upperback thorax
    thorax lowerneck lclavicle rclavicle
    lowerneck upperneck
    upperneck head
    lclavicle lhumerus
    lhumerus lradius
    lradius lwrist
    lwrist lhand lthumb
    lhand lfingers
    rclavicle rhumerus
    rhumerus rradius
    rradius rwrist
    rwrist rhand rthumb
    rhand rfingers
  end

#!OML:ASF E:\motion texture\Top Level 1\Subject 1\Session 1\male.ASF
:FULLY-SPECIFIED
:DEGREES
49
root 26.3567 17.5773 5.0392 -38.9834 -88.3629 42.8395
lowerback 3.3912 -4.68352 -4.22495
upperback -2.43955 -6.41309 2.31853
thorax -3.69499 -3.05839 5.14379
lowerneck -23.2949 -1.77671 -4.38072
upperneck 15.7682 -2.16303 5.52596
head 8.86073 -0.669081 2.30812
rclavicle -6.82266e-014 -1.47101e-014
rhumerus -48.0475 -2.39558 -77.1902
rradius 39.3725
rwrist 0.885106
rhand -9.07838 -11.501
rfingers 7.12502
rthumb 16.871 -40.7881
lclavicle -6.82266e-014 -1.47101e-014
lhumerus -23.6388 -15.4473 93.6229
lradius 64.5041
lwrist 1.75222
lhand -8.46391 7.95004
lfingers 7.12502
lthumb 17.4624 37.1857
rfemur -54.5155 -4.71639 19.72
rtibia 57.5247
rfoot 26.436 -8.76788
rtoes 22.8209
lfemur 9.36432 -5.42206 -23.7636
ltibia 17.942
lfoot -11.6902 -7.20406
ltoes -13.2895
50
root 26.1657 17.5597 5.00948 -29.9486 -88.4247 33.9408
lowerback 2.78545 -4.61855 -4.08224
upperback -2.46648 -6.29761 2.39691
thorax -3.40075 -3.01497 5.08323
lowerneck -23.1795 -1.87418 -4.44558
upperneck 15.8315 -2.27448 5.49208
head 8.86919 -0.730622 2.29152
rclavicle 1.20886e-014 8.74653e-015
rhumerus -47.4689 -2.16425 -77.8931
rradius 40.1953
rwrist 0.12901
rhand -9.31998 -11.5425
rfingers 7.12502
rthumb 16.6384 -40.8493
lclavicle 1.20886e-014 8.74653e-015
lhumerus -24.7906 -15.2975 93.9343
lradius 63.4345
lwrist 1.64794
lhand -8.0318 8.24413
lfingers 7.12502
lthumb 17.8782 37.4423
rfemur -51.6798 -4.5859 20.0071
rtibia 55.5234
rfoot 23.6827 -8.25973
rtoes 18.6092
lfemur 9.45244 -5.35833 -23.2265
ltibia 18.606
lfoot -11.2527 -7.8002
ltoes -14.1326
51
root 25.9689 17.5428 4.97684 -20.9694 -88.4382 25.0969
lowerback 2.12955 -4.54951 -3.97405
upperback -2.49878 -6.17927 2.46879
thorax -3.08146 -2.96953 5.03257
lowerneck -23.0494 -1.97231 -4.50861
upperneck 15.9137 -2.38717 5.44878
head 8.88157 -0.7939 2.27139
rclavicle -4.2397e-015 -7.95139e-015
rhumerus -46.8743 -1.90371 -78.6357
rradius 41.0589
rwrist -0.565489
rhand -9.57259 -11.5814
rfingers 7.12502
rthumb 16.3952 -40.9085
lclavicle -4.2397e-015 -7.95139e-015
lhumerus -25.9835 -15.1288 94.2104
lradius 62.2576
lwrist 1.52434
lhand -7.7399 8.41112
lfingers 7.12502
lthumb 18.1591 37.5835
rfemur -48.7729 -4.40926 20.2918
rtibia 53.5436
rfoot 19.7494 -7.50381
rtoes 14.0475
lfemur 9.38249 -5.24469 -22.6479
ltibia 19.547
lfoot -10.6586 -8.5279
ltoes -15.0701
52
root 25.7684 17.5272 4.94157 -12.4559 -88.4081 16.7151
lowerback 1.45146 -4.4765 -3.89498
upperback -2.54357 -6.0584 2.53754
thorax -2.76058 -2.92153 4.99588
lowerneck -22.8949 -2.07116 -4.584
upperneck 16.0197 -2.49904 5.40441
head 8.89807 -0.858083 2.25329
rclavicle 2.5821e-014 -4.77083e-015
rhumerus -46.2627 -1.60372 -79.4159
rradius 41.9587
rwrist -1.18515
rhand -9.83437 -11.672
rfingers 7.12502
rthumb 16.1431 -41.0197
lclavicle 2.5821e-014 -4.77083e-015
lhumerus -27.205 -14.9304 94.4468
lradius 60.9572
lwrist 1.34697
lhand -7.38176 8.74605
lfingers 7.12502
lthumb 18.5036 37.886
rfemur -45.8336 -4.173 20.5716
rtibia 51.5223
rfoot 14.9921 -6.41635
rtoes 10.2738
lfemur 9.10056 -5.07907 -22.0181
ltibia 20.8327
lfoot -9.84469 -9.39423
ltoes -16.1404
53
root 25.5661 17.5129 4.90427 -4.6745 -88.3614 9.06155
lowerback 0.774958 -4.38955 -3.82967
upperback -2.6037 -5.92146 2.60321
thorax -2.4576 -2.864 4.96721
lowerneck -22.7338 -2.17566 -4.67048
upperneck 16.1619 -2.61647 5.3555
head 8.92632 -0.926229 2.23504
rclavicle -2.44536e-014 2.22639e-014
rhumerus -45.6305 -1.26658 -80.231
rradius 42.8963
rwrist -1.74801
rhand -10.0706 -11.8258
rfingers 7.12502
rthumb 15.9157 -41.1919
lclavicle -2.44536e-014 2.22639e-014
lhumerus -28.4457 -14.7012 94.6357
lradius 59.5307
lwrist 1.09188
lhand -7.30755 8.87385
lfingers 7.12502
lthumb 18.575 38.007
rfemur -42.9185 -3.84206 20.8487
rtibia 49.3781
rfoot 9.96694 -5.15727
rtoes 8.32732
lfemur 8.5529 -4.85121 -21.3275
ltibia 22.5223
lfoot -8.71483 -10.3985
ltoes -17.2165
54
root 25.3647 17.5007 4.86584 3.22967 -88.3183 1.27409
lowerback 0.133651 -4.2801 -3.74359
upperback -2.6776 -5.75702 2.67027
thorax -2.19378 -2.79141 4.93532
lowerneck -22.5649 -2.28848 -4.76903
upperneck 16.3292 -2.74359 5.30689
head 8.96259 -0.999911 2.21774
rclavicle 8.15266e-014 -3.85642e-014
rhumerus -44.9675 -0.894424 -81.0765
rradius 43.8726
rwrist -2.27567
rhand -10.2613 -12.0656
rfingers 7.12502
rthumb 15.732 -41.4461
lclavicle 8.15266e-014 -3.85642e-014
lhumerus -29.6713 -14.4334 94.7665
lradius 57.9548
lwrist 0.714913
lhand -7.24679 8.99389
lfingers 7.12502
lthumb 18.6335 38.1214
rfemur -40.0698 -3.40237 21.1554
rtibia 47.0268
rfoot 5.29311 -4.01555
rtoes 8.54506
lfemur 7.70172 -4.5624 -20.5503
ltibia 24.6439
lfoot -7.12356 -11.5161
ltoes -18.114
55
root 25.1664 17.4912 4.82746 12.4876 -88.2921 -7.89327
lowerback -0.43601 -4.13477 -3.59336
upperback -2.75896 -5.54793 2.7414
thorax -1.98831 -2.69561 4.88189
lowerneck -22.3988 -2.41493 -4.87877
upperneck 16.5179 -2.88871 5.26406
head 9.00805 -1.08226 2.2019
rclavicle 2.9768e-014 6.36111e-015
rhumerus -44.2615 -0.493399 -81.9503
rradius 44.8861
rwrist -2.80392
rhand -10.4083 -12.3548
rfingers 7.12502
rthumb 15.5904 -41.7465
lclavicle 2.9768e-014 6.36111e-015
lhumerus -30.856 -14.1206 94.8251
lradius 56.2216
lwrist 0.179867
lhand -7.1702 9.06174
lfingers 7.12502
lthumb 18.7071 38.1822
rfemur -37.3279 -2.85762 21.5436
rtibia 44.4636
rfoot 1.41627 -3.24451
rtoes 10.5179
lfemur 6.53753 -4.20305 -19.66
ltibia 27.1845
lfoot -4.88939 -12.6725
ltoes -18.6358
56
root 24.9736 17.4851 4.78981 24.8654 -88.2624 -20.215
lowerback -0.90833 -3.94525 -3.32681
upperback -2.84203 -5.28414 2.82353
thorax -1.85357 -2.5724 4.78673
lowerneck -22.2313 -2.55339 -5.00382
upperneck 16.7072 -3.05148 5.2442
head 9.05526 -1.17156 2.19399
rclavicle 1.22625e-014 -8.74653e-015
rhumerus -43.4996 -0.0564258 -82.854
rradius 45.9344
rwrist -3.35768
rhand -10.5327 -12.6161
rfingers 7.12502
rthumb 15.4706 -42.0171
lclavicle 1.22625e-014 -8.74653e-015
lhumerus -31.9687 -13.7441 94.7875
lradius 54.3279
lwrist -0.525225
lhand -7.12938 9.06302
lfingers 7.12502
lthumb 18.7464 38.1797
rfemur -34.7385 -2.22815 22.0846
rtibia 41.7762
rfoot -1.59479 -2.91607
rtoes 12.9864
lfemur 5.06723 -3.77325 -18.6143
ltibia 30.0727
lfoot -1.77848 -13.7182
ltoes -18.4375
57
root 24.7891 17.4828 4.7536 41.0802 -88.1567 -36.417
lowerback -1.25148 -3.7027 -2.90399
upperback -2.91949 -4.95508 2.92349
thorax -1.80158 -2.41721 4.63588
lowerneck -22.0754 -2.70308 -5.14481
upperneck 16.8836 -3.23135 5.25575
head 9.10205 -1.26642 2.19702
rclavicle 2.32827e-014 8.74653e-015
rhumerus -42.6638 0.42407 -83.7833
rradius 47.0126
rwrist -3.92574
rhand -10.6185 -12.8283
rfingers 7.12502
rthumb 15.3879 -42.2357
lclavicle 2.32827e-014 8.74653e-015
lhumerus -32.9655 -13.2756 94.6292
lradius 52.2684
lwrist -1.44372
lhand -7.08626 9.03272
lfingers 7.12502
lthumb 18.7879 38.1454
rfemur -32.3683 -1.54027 22.828
rtibia 39.16
rfoot -3.74613 -2.99963
rtoes 15.0601
lfemur 3.30895 -3.25405 -17.3878
ltibia 33.2354
lfoot 2.27383 -14.4583
ltoes -17.5039
58
root 24.6151 17.4839 4.71978 59.2615 -87.8665 -54.6273
lowerback -1.45113 -3.40495 -2.29335
upperback -2.9903 -4.55783 3.0475
thorax -1.83815 -2.2297 4.41711
lowerneck -21.9188 -2.85786 -5.30057
upperneck 17.0271 -3.4199 5.29859
head 9.13901 -1.36299 2.21184
rclavicle -2.41275e-014 2.38542e-014
rhumerus -41.7417 0.968012 -84.7306
rradius 48.1111
rwrist -4.4888
rhand -10.7009 -12.9952
rfingers 7.12502
rthumb 15.3086 -42.4086
lclavicle -2.41275e-014 2.38542e-014
lhumerus -33.8279 -12.6712 94.3255
lradius 50.0578
lwrist -2.56341
lhand -7.01602 8.99846
lfingers 7.12502
lthumb 18.8554 38.1046
rfemur -30.3176 -0.826571 23.7991
rtibia 36.8847
rfoot -5.17908 -3.33031
rtoes 16.6488
lfemur 1.28945 -2.6528 -15.9844
ltibia 36.6152
lfoot 7.11521 -14.7464
ltoes -15.791
59
root 24.4529 17.4886 4.6893 75.5484 -87.3025 -70.9918
lowerback -1.4928 -3.05144 -1.47579
upperback -3.04079 -4.0896 3.19701
thorax -1.95406 -2.01014 4.11865
lowerneck -21.7914 -3.01651 -5.45332
upperneck 17.1386 -3.61691 5.36145
head 9.17128 -1.46064 2.23158
rclavicle 1.04113e-014 2.78299e-015
rhumerus -40.7162 1.59248 -85.6888
rradius 49.2281
rwrist -5.01884
rhand -10.7768 -13.1066
rfingers 7.12502
rthumb 15.2355 -42.5256
lclavicle 1.04113e-014 2.78299e-015
lhumerus -34.5301 -11.8847 93.8463
lradius 47.7263
lwrist -3.85882
lhand -6.88638 9.04339
lfingers 7.12502
lthumb 18.9801 38.1373
rfemur -28.6218 -0.126172 24.9936
rtibia 35.1217
rfoot -6.05309 -3.69273
rtoes 17.8671
lfemur -0.951504 -1.97257 -14.4228
ltibia 40.1759
lfoot 12.4531 -14.6737
ltoes -13.2961
